<svg xmlns="http://www.w3.org/2000/svg" width="1240" height="1240"><path d="M359.35 375.858c-2.283.908-5.144 2.549-6.358 3.647-3.148 2.845-6.992 10.872-6.992 14.602 0 4.634 3.864 11.617 8.431 15.236l3.983 3.157 18.236.329c13.142.236 18.529.682 19.285 1.593.578.696 1.458 3.923 1.957 7.171a388.533 388.533 0 002.007 11.657l2.202 11.5c.606 3.163 1.682 9.35 2.393 13.75 1.759 10.898 3.327 19.666 5.006 28 .776 3.85 1.884 9.925 2.462 13.5 1.567 9.696 2.988 17.684 4.537 25.5.763 3.85 1.899 10.15 2.524 14a1345.4 1345.4 0 002.46 14.5c.728 4.125 1.837 10.425 2.465 14 .628 3.575 1.779 9.65 2.558 13.5.779 3.85 1.846 9.7 2.372 13 2.405 15.089 3.342 20.447 4.636 26.5.763 3.575 1.654 8.58 1.979 11.122.539 4.213.388 4.677-1.701 5.237-1.261.337-3.582.62-5.158.627-4.668.023-19.09 5.378-24.997 9.282-12.682 8.383-22.527 21.128-27.897 36.115-3.034 8.468-3.243 31.457-.355 39.117 4.661 12.36 9.535 20.381 16.841 27.713 6.619 6.642 12.64 10.371 26.202 16.228 4.403 1.901 25.948 4.02 31.762 3.124 4.626-.714 5.469.539 3.55 5.272-2.383 5.877-4.74 16.613-4.74 21.588 0 10.851 7.236 32.954 12.517 38.234.815.816 1.483 1.834 1.483 2.261 0 3.058 23.103 21.056 27.05 21.073.853.004 2.068.525 2.701 1.158.633.633 3.086 1.496 5.45 1.916 2.365.421 7.336 1.32 11.049 1.997 5.355.977 8.145.976 13.5-.007 3.712-.681 8.1-1.466 9.75-1.744 6.27-1.058 16.111-6.122 24.354-12.531 7.152-5.563 14.123-14.11 17.762-21.782 1.435-3.025 3.017-6.296 3.517-7.269 1.491-2.905 3.867-16.832 3.867-22.671 0-6.591-1.696-16.245-3.729-21.223-.823-2.014-1.327-4.168-1.122-4.785.27-.809 13.241-1.125 46.363-1.131l45.988-.008-.123 2.293c-.068 1.262-1.069 5.669-2.226 9.794-2.301 8.204-2.774 19.903-1.07 26.5.568 2.2 1.436 5.582 1.928 7.515 2.597 10.193 11.798 24.308 20.487 31.428 2.387 1.957 4.632 3.557 4.989 3.557.357 0 2.081 1.093 3.833 2.429 1.751 1.336 5.434 3.409 8.183 4.606C711.04 860.448 726.524 864 731.5 864c3.899 0 20.395-3.382 23.067-4.729 1.063-.536 4.183-2.05 6.933-3.365 5.225-2.499 11.825-7.309 17.024-12.406 4.197-4.116 10.476-12.519 10.476-14.021 0-.679.646-1.77 1.436-2.426.789-.655 1.732-2.54 2.094-4.189.362-1.65 1.288-4.206 2.058-5.681.77-1.476 1.402-3.845 1.406-5.266.003-1.421.524-5.163 1.157-8.315 1.302-6.484-.163-20.291-2.838-26.73-2.987-7.192-4.004-6.918 26.687-7.192 17.611-.157 28.399-.648 30-1.365 6.309-2.826 12.996-12.311 12.999-18.438.002-2.884-3.793-10.293-6.893-13.461-6.732-6.878 9.021-6.416-218.724-6.416-194.033 0-205.571-.097-208.668-1.758-12.757-6.837-17.79-17.926-14.76-32.521.974-4.692 2.053-6.622 5.924-10.596 2.604-2.673 6.903-5.819 9.555-6.992l4.821-2.133h385.01l3.618-2.159c6.727-4.015 8.877-6.765 11.104-14.207 1.175-3.924 2.752-9.159 3.504-11.634.753-2.475 1.688-6.258 2.08-8.407.391-2.149 1.32-5.074 2.065-6.5.744-1.426 1.371-3.943 1.394-5.593.023-1.65.685-4.125 1.471-5.5s1.439-3.4 1.45-4.5c.012-1.1.96-5.15 2.107-9 1.148-3.85 2.72-9.366 3.495-12.257a912.859 912.859 0 012.893-10.5c.816-2.884 1.741-6.368 2.055-7.743.583-2.555 2.323-8.897 5.006-18.25.828-2.887 1.933-7.05 2.454-9.25 2.064-8.711 3.331-13.143 4.655-16.284.762-1.806 1.378-4.056 1.371-5-.008-.944.924-4.866 2.071-8.716 1.148-3.85 2.72-9.366 3.495-12.257a912.859 912.859 0 012.893-10.5c.816-2.884 1.741-6.368 2.055-7.743.314-1.375 1.23-4.863 2.035-7.75.806-2.888 2.118-7.613 2.917-10.5a880.42 880.42 0 013.5-12.168c2.554-8.627 2.569-11.679.082-16.372-2.589-4.886-4.89-7.551-8.49-9.835-2.861-1.815-10.015-1.891-222.369-2.375l-219.413-.5-1.823-7c-1.003-3.85-1.85-8.831-1.881-11.068-.032-2.238-.688-6.288-1.457-9-.77-2.713-1.691-7.337-2.047-10.276-.647-5.34-3.628-11.255-7.174-14.237-5.126-4.31-9.77-4.924-36.413-4.815-21.156.086-26.17.383-29.617 1.754m-118.1 69.885c-3.988.189-7.25.707-7.25 1.149 0 .442 4.725 1.093 10.5 1.447 11.187.684 31.5-.179 31.5-1.339 0-.732-19.1-2.142-24.406-1.801-1.702.109-6.356.354-10.344.544m205.147 25.666c-.298.775-.029 3.138.597 5.25.626 2.113 1.74 7.666 2.475 12.341 1.268 8.056 1.859 11.346 4.58 25.5.634 3.3 1.734 9.6 2.445 14 1.759 10.898 3.327 19.666 5.006 28 .776 3.85 1.928 10.15 2.561 14 3.118 18.984 3.757 22.618 7.028 40 .621 3.3 1.713 9.677 2.428 14.172 1.665 10.479 2.221 12.131 4.208 12.514.897.173 74.107.089 162.689-.186 160.09-.497 161.061-.512 161.382-2.5.178-1.1 1.216-5.15 2.306-9 1.091-3.85 2.639-9.362 3.441-12.25.801-2.888 2.116-7.612 2.922-10.5.805-2.888 1.721-6.375 2.035-7.75.314-1.375 1.239-4.859 2.055-7.743A2285.907 2285.907 0 00821 564c1.123-4.125 2.674-9.75 3.447-12.5.774-2.75 2.358-8.6 3.52-13 1.163-4.4 2.809-10.475 3.658-13.5 2.955-10.521 4.308-15.515 4.875-18 .76-3.328 3.426-12.758 4.666-16.5 1.009-3.048 3.466-12.747 4.495-17.75l.566-2.75H646.582c-170.815 0-199.723.203-200.185 1.409m60.191 300.238c-7.542 2.315-14.54 10.02-16.966 18.678-1.801 6.426-1.807 6.956-.148 12.867 1.65 5.881 3.942 10.004 7.776 13.989.962 1.001 2.017 1.819 2.342 1.819.326 0 1.694.866 3.039 1.925 3.237 2.546 13.549 3.631 20.446 2.152 6.428-1.379 12.794-6.294 16.632-12.843 2.389-4.077 2.718-5.68 2.709-13.188-.01-7.554-.337-9.099-2.816-13.307-6.789-11.524-19.59-16.213-33.014-12.092m216.118-.334c-6 1.678-14.51 10.113-16.796 16.649-2.344 6.703-2.403 10.799-.251 17.625 1.858 5.895 6.814 11.879 12.841 15.506 3.437 2.068 5.267 2.407 13 2.407 7.736 0 9.562-.338 13-2.409 4.771-2.874 9.5-7.08 9.5-8.449 0-.542.788-1.855 1.75-2.918 1.439-1.59 1.75-3.851 1.75-12.724 0-8.873-.311-11.134-1.75-12.724-.962-1.063-1.75-2.361-1.75-2.882 0-1.071-3.042-3.874-7.5-6.912-6.219-4.238-15.534-5.478-23.794-3.169" fill="undefined" fill-rule="evenodd"/></svg>